<svg xmlns="http://www.w3.org/2000/svg" viewBox="0 0 509.67 513.8"><defs><style>.cls-1{fill:#6bb239;}</style></defs><title>delta-contained</title><g id="Layer_2" data-name="Layer 2"><g id="Layer_1-2" data-name="Layer 1"><path class="cls-1" d="M77.38,513.7c-26.5,0-51.7-14.3-65.9-37.2a76.84,76.84,0,0,1-3.1-75.3l177-358.3a77.59,77.59,0,0,1,138.7-.2l177.3,358.8a76.74,76.74,0,0,1-3.2,75.1c-14.1,22.9-39.4,37.2-65.9,37.2h0a78.15,78.15,0,0,1-29.6-5.9,392.9,392.9,0,0,0-295.8,0,79.48,79.48,0,0,1-29.5,5.8m177.4-111.2A466.33,466.33,0,0,1,431.58,437a2.26,2.26,0,0,0,.7.2,2.41,2.41,0,0,0,1-1.2c0,.1-.1-.2-.3-.6L255.68,76.6c-.1-.3-.2-.4-.9-.4s-.8.1-1,.6L76.68,435.2a7.86,7.86,0,0,0-.4.9,2.89,2.89,0,0,0,1.1,1.1,3.93,3.93,0,0,0,.6-.2,468.26,468.26,0,0,1,176.8-34.5"/></g></g></svg>