<?xml version="1.0" encoding="utf-8"?>
<!-- Generator: Adobe Illustrator 20.0.0, SVG Export Plug-In . SVG Version: 6.00 Build 0)  -->
<svg version="1.1" id="Layer_1" xmlns="http://www.w3.org/2000/svg" xmlns:xlink="http://www.w3.org/1999/xlink" x="0px" y="0px"
	 viewBox="0 0 612 792" style="enable-background:new 0 0 612 792;" xml:space="preserve">
<style type="text/css">
	.st0{fill:#6BB239;}
</style>
<path class="st0" d="M127.7,653.8c-26.5,0-51.7-14.3-65.9-37.2c-14.1-22.9-15.3-51.1-3.1-75.3l177-358.3
	c13.4-26.6,39.9-42.9,69.4-42.9c29.5,0,56,16.4,69.3,42.7l177.3,358.8c12.1,24,10.9,52.2-3.2,75.1c-14.1,22.9-39.4,37.2-65.9,37.2h0
	c-10.1,0-20-2-29.6-5.9c-46.9-19.2-96.7-28.9-147.9-28.9c-51.2,0-100.9,9.7-147.9,28.9C147.7,651.8,137.7,653.8,127.7,653.8
	 M305.1,542.6c61.1,0,120.6,11.6,176.8,34.5c0.5,0.2,0.7,0.2,0.7,0.2c0.3-0.1,0.9-0.8,1-1.2c0,0.1-0.1-0.2-0.3-0.6L306,216.7
	c-0.1-0.3-0.2-0.4-0.9-0.4c-0.7,0-0.8,0.1-1,0.6L127,575.3c-0.3,0.6-0.4,0.9-0.4,0.9c0.1,0.3,0.7,0.9,1.1,1.1c0.1,0,0.3-0.1,0.6-0.2
	C184.5,554.3,244,542.6,305.1,542.6"/>
</svg>
